<svg width="82" height="51" viewBox="0 0 82 51" fill="none" xmlns="http://www.w3.org/2000/svg">
<path d="M13.7083 0.599997H0.748344V51H13.7083V0.599997ZM74.8195 23.64C77.3395 20.832 78.7795 17.376 78.7795 13.848C78.7795 6.432 75.2515 0.599997 63.8035 0.599997H19.4515V51H65.5315C76.9795 51 81.9475 44.808 81.9475 36.312C81.9475 30.48 79.1395 26.304 74.8195 23.64ZM32.4115 9.96H59.1235C62.6515 9.96 65.8195 9.96 65.8195 15.144C65.8195 20.4 62.6515 20.4 59.1955 20.4H59.1235H32.4115V9.96ZM62.3635 40.992H32.4115V30.336H62.3635C65.8195 30.336 68.9875 30.336 68.9875 35.664C68.9875 40.992 65.8195 40.992 62.3635 40.992Z" fill="black"/>
</svg>
